# AST/ASF file generated using VICON BodyLanguage
# -----------------------------------------------
:version 1.10
:name VICON
:units
  mass 1.0
  length 0.45
  angle deg
:documentation
   .ast/.asf automatically generated from VICON data using
   VICON BodyBuilder and BodyLanguage model FoxedUp or BRILLIANT.MOD
:root
   order TX TY TZ RX RY RZ
   axis XYZ
   position 0 0 0  
   orientation 0 0 0 
:bonedata
  begin
     id 1 
     name lhipjoint
     direction 0.603808 -0.713975 0.35448 
     length 2.2025 
     axis 0 0 0  XYZ
  end
  begin
     id 2 
     name lfemur
     direction 0.34202 -0.939693 0  
     length 6.55877  
     axis 0 0 20  XYZ
    dof rx ry rz
    limits (-160.0 20.0)
           (-70.0 70.0)
           (-60.0 70.0)
  end
  begin
     id 3 
     name ltibia
     direction 0.34202 -0.939693 0   
     length 6.80302   
     axis 0 0 20   XYZ
    dof rx
    limits (-10.0 170.0)
  end
  begin
     id 4 
     name lfoot
     direction 0.091848 -0.25235 0.963267   
     length 2.03446   
     axis -90 7.62852e-016 20   XYZ
    dof rx rz
    limits (-45.0 90.0)
           (-70.0 20.0)
  end
  begin
     id 5 
     name ltoes
     direction 1.53608e-011 -4.21925e-011 1   
     length 1.02033   
     axis -90 7.62852e-016 20   XYZ
    dof rx
    limits (-90.0 20.0)
  end
  begin
     id 6 
     name rhipjoint
     direction -0.587285 -0.724947 0.359928   
     length 2.16916  
     axis 0 0 0  XYZ 
  end
  begin
     id 7 
     name rfemur
     direction -0.34202 -0.939693 0   
     length 6.43173   
     axis 0 0 -20   XYZ
    dof rx ry rz
    limits (-160.0 20.0)
           (-70.0 70.0)
           (-70.0 60.0)
  end
  begin
     id 8 
     name rtibia
     direction -0.34202 -0.939693 0   
     length 6.70662   
     axis 0 0 -20   XYZ
    dof rx
    limits (-10.0 170.0)
 end
 begin
     id 9 
     name rfoot
     direction -0.11854 -0.325686 0.938018   
     length 2.0773  
     axis -90 -7.62852e-016 -20   XYZ
    dof rx rz
    limits (-45.0 90.0)
           (-20.0 70.0)
  end
  begin
     id 10 
     name rtoes
     direction -1.53547e-011 -4.21838e-011 1   
     length 1.03267   
     axis -90 -7.62852e-016 -20   XYZ
    dof rx
    limits (-90.0 20.0)
  end
  begin
     id 11 
     name lowerback
     direction -0.0286554 0.999539 0.0100613   
     length 2.08751   
     axis 0 0 0   XYZ
    dof rx ry rz
    limits (-20.0 45.0)
           (-30.0 30.0)
           (-30.0 30.0)
  end
  begin
     id 12 
     name upperback
     direction 0.0227093 0.999705 -0.00860929   
     length 2.08517   
     axis 0 0 0   XYZ
    dof rx ry rz
    limits (-20.0 45.0)
           (-30.0 30.0)
           (-30.0 30.0)
  end
  begin
     id 13 
     name thorax
     direction 0.0351627 0.999285 -0.013892   
     length 2.08412   
     axis 0 0 0   XYZ
    dof rx ry rz
    limits (-20.0 45.0)
           (-30.0 30.0)
           (-30.0 30.0)
  end
  begin
     id 14 
     name lowerneck
     direction -0.0696283 0.997344 0.0213922   
     length 1.44164   
     axis 0 0 0   XYZ
    dof rx ry rz
    limits (-20.0 45.0)
           (-30.0 30.0)
           (-30.0 30.0)
  end
  begin
     id 15 
     name upperneck
     direction 0.0531 0.990412 -0.127531   
     length 1.45022   
     axis 0 0 0   XYZ
    dof rx ry rz
    limits (-20.0 45.0)
           (-30.0 30.0)
           (-30.0 30.0)
  end
  begin
     id 16
     name head
     direction 0.0188154 0.998548 -0.0504727  
     length 1.45845  
     axis 0 0 0   XYZ
    dof rx ry rz
    limits (-20.0 45.0)
           (-30.0 30.0)
           (-30.0 30.0)
  end
  begin
     id 17 
     name lclavicle
     direction 0.961559 0.260051 0.088188  
     length 2.86057  
     axis 0 0 0   XYZ
    dof ry rz
    limits (-20.0 10.0)
           (0.0 20.0)
  end
  begin
     id 18 
     name lhumerus
     direction 1 -4.48959e-011 2.88185e-027   
     length 4.36901   
     axis 180 -30 -90   XYZ
    dof rx ry rz
    limits (-60.0 90.0)
           (-90.0 90.0)
           (-90.0 90.0)
  end
  begin
     id 19
     name lradius
     direction 1 -4.48965e-011 -3.92618e-028   
     length 3.21737   
     axis 180 -30 -90   XYZ
    dof rx
    limits (-10.0 170.0)
  end
  begin
     id 20
     name lwrist
     direction 1 -4.49037e-011 2.57246e-027   
     length 1.60869   
     axis -1.61769e-015 90 90   XYZ
    dof ry
    limits (-180.0 0.0)
 end
  begin
     id 21 
     name lhand
     direction 1 -4.48807e-011 5.12958e-027   
     length 0.564313   
     axis -3.27988e-015 90 90   XYZ
    dof rx rz
    limits (-90.0 90.0)
           (-45.0 45.0)
  end
  begin
     id 22 
     name lfingers
     direction 1 -4.48879e-011 1.02687e-026   
     length 0.454963   
     axis -6.5598e-015 90 90   XYZ
    dof rx
    limits (0.0 90.0)
  end
  begin
     id 23
     name lthumb
     direction 0.707107 -6.3475e-011 0.707107   
     length 0.653239   
     axis -90 45 2.19363e-014   XYZ
    dof rx rz
    limits (-45.0 45.0)
           (-45.0 45.0)
  end
  begin
     id 24 
     name rclavicle
     direction -0.954677 0.253915 0.155304   
     length 3.11497  
     axis 0 0 0   XYZ 
    dof ry rz
    limits (-10.0 20.0)
           (-20.0 0.0)
  end
  begin
     id 25 
     name rhumerus
     direction -1 -4.48958e-011 -8.20169e-028  
     length 4.34118   
     axis 180 30 90   XYZ
    dof rx ry rz
    limits (-90.0 60.0)
           (-90.0 90.0)
           (-90.0 90.0)
  end
  begin
     id 26 
     name rradius
     direction -1 -4.48978e-011 1.5676e-027   
     length 3.09531   
     axis 180 30 90   XYZ
    dof rx
    limits (-10.0 170.0)
  end
  begin
     id 27 
     name rwrist
     direction -1 -4.49001e-011 2.57123e-027   
     length 1.54765   
     axis -1.61769e-015 -90 -90   XYZ
    dof ry
    limits (-180.0 0.0)
  end
  begin
     id 28
     name rhand
     direction -1 -4.48847e-011 5.13225e-027   
     length 0.597446   
     axis -3.27988e-015 -90 -90   XYZ
    dof rx rz
    limits (-90.0 90.0)
           (-45.0 45.0)
  end
  begin
     id 29
     name rfingers
     direction -1 -4.49094e-011 1.02974e-026   
     length 0.481677   
     axis -6.5598e-015 -90 -90   XYZ
    dof rx
    limits (0.0 90.0)
  end
  begin
     id 30
     name rthumb
     direction -0.707107 -6.34859e-011 0.707107   
     length 0.691594   
     axis -90 -45 -2.19363e-014   XYZ
    dof rx rz
    limits (-45.0 45.0)
           (-45.0 45.0)
  end
:hierarchy
  begin
    root lhipjoint rhipjoint lowerback
    lhipjoint lfemur
    lfemur ltibia
    ltibia lfoot
    lfoot ltoes
    rhipjoint rfemur
    rfemur rtibia
    rtibia rfoot
    rfoot rtoes
    lowerback upperback
    upperback thorax
    thorax lowerneck lclavicle rclavicle
    lowerneck upperneck
    upperneck head
    lclavicle lhumerus
    lhumerus lradius
    lradius lwrist
    lwrist lhand lthumb
    lhand lfingers
    rclavicle rhumerus
    rhumerus rradius
    rradius rwrist
    rwrist rhand rthumb
    rhand rfingers
  end

#!OML:ASF I:\Acrobat_Osman\acrobat\cartwheel_test 2\Patient 1\Session 1\acrobat.ASF
:FULLY-SPECIFIED
:DEGREES
1901
root 8.6438 15.9353 -0.616786 -0.656753 -28.399 -1.07764
lowerback 3.11734 -5.1604 -6.53834
upperback 1.59409 -7.10346 4.4895
thorax 1.29385 -3.70906 8.42824
lowerneck -4.05109 -9.43688 -8.47163
upperneck 8.46093 -12.9066 8.39679
head 4.28601 -6.29928 3.17633
rclavicle -7.46933e-014 1.35174e-014
rhumerus -33.0332 -0.40087 -45.9362
rradius 60.733
rwrist -18.5542
rhand -24.1313 22.9534
rfingers 7.12502
rthumb 2.35055 -7.01336
lclavicle -7.46933e-014 1.35174e-014
lhumerus -26.492 -33.8761 90.5327
lradius 81.3096
lwrist 18.027
lhand -13.6021 41.4623
lfingers 7.12502
lthumb 12.5128 791.068
rfemur -34.4062 -4.33598 4.7734
rtibia 56.8649
rfoot -7.08986 -6.22194
rtoes -19.6433
lfemur -184.191 171.989 -203.459
ltibia 28.7871
lfoot -18.2462 21.5271
ltoes -11.1828
1902
root 8.59444 15.913 -0.603493 -0.338311 -30.5218 -1.17362
lowerback 2.80016 -4.24444 -5.94442
upperback 1.63668 -5.83976 4.23067
thorax 1.1764 -3.05404 7.80909
lowerneck -4.37664 -9.4185 -8.18917
upperneck 8.46551 -12.9115 8.67711
head 4.34223 -6.27237 3.20178
rclavicle -5.2827e-014 1.27222e-014
rhumerus -32.7698 1.67848 -48.2576
rradius 64.3523
rwrist -17.9717
rhand -24.3971 22.9633
rfingers 7.12502
rthumb 2.09389 -7.00622
lclavicle -5.2827e-014 1.27222e-014
lhumerus -28.9324 -31.2697 89.85
lradius 82.0808
lwrist 18.8497
lhand -14.0772 41.5733
lfingers 7.12502
lthumb 12.0546 791.206
rfemur -32.5938 -3.22516 5.08402
rtibia 54.3726
rfoot -5.78729 -5.47021
rtoes -20.3708
lfemur -184.494 172.547 -203.725
ltibia 29.2343
lfoot -18.7403 23.9283
ltoes -10.0388
1903
root 8.51762 15.9098 -0.623961 0.573737 -30.2661 -1.36818
lowerback 2.39036 -4.16658 -5.73281
upperback 1.39167 -5.70702 4.08231
thorax 1.08881 -2.96887 7.50971
lowerneck -4.7678 -9.35572 -7.94774
upperneck 8.57335 -12.8723 9.05883
head 4.44667 -6.21708 3.26241
rclavicle 4.56211e-014 7.15625e-015
rhumerus -32.822 3.75615 -50.7076
rradius 68.0966
rwrist -17.3666
rhand -24.4013 22.6591
rfingers 7.12502
rthumb 2.08976 -7.31037
lclavicle 4.56211e-014 7.15625e-015
lhumerus -31.3276 -28.6792 88.8206
lradius 82.7576
lwrist 19.9218
lhand -14.1769 41.9159
lfingers 7.12502
lthumb 11.9585 791.554
rfemur -30.6366 -3.83767 5.73992
rtibia 51.9449
rfoot -5.84573 -5.51087
rtoes -20.5042
lfemur -185.475 172.959 -203.296
ltibia 29.6015
lfoot -18.853 24.0385
ltoes -10.3462
1904
root 8.43867 15.9015 -0.640607 1.30958 -30.3138 -1.44071
lowerback 1.95813 -4.00619 -5.52068
upperback 1.26114 -5.46438 3.85564
thorax 1.1088 -2.83595 7.12376
lowerneck -5.22616 -9.3057 -7.86595
upperneck 8.75639 -12.859 9.57467
head 4.60722 -6.16881 3.3812
rclavicle -9.08446e-014 3.97569e-015
rhumerus -33.0371 5.64238 -53.1221
rradius 71.7318
rwrist -16.6745
rhand -23.5459 22.9946
rfingers 7.12502
rthumb 2.91588 -6.9652
lclavicle -9.08446e-014 3.97569e-015
lhumerus -33.3891 -26.1183 87.4994
lradius 82.9842
lwrist 20.6181
lhand -14.1042 42.0438
lfingers 7.12502
lthumb 12.0287 791.678
rfemur -29.0112 -4.47248 6.40818
rtibia 49.634
rfoot -6.04958 -5.22674
rtoes -20.1091
lfemur -186.277 173.353 -203.042
ltibia 29.9521
lfoot -19.1256 24.4171
ltoes -9.94007
1905
root 8.35535 15.8956 -0.659613 1.83267 -30.5289 -1.46243
lowerback 1.71387 -3.77841 -5.41417
upperback 1.24625 -5.14294 3.61217
thorax 1.14358 -2.66941 6.79403
lowerneck -5.62887 -9.26597 -7.76353
upperneck 8.80675 -12.8568 10.0887
head 4.71816 -6.1275 3.5014
rclavicle 1.64892e-013 -1.98785e-014
rhumerus -33.4274 7.4605 -55.5574
rradius 75.2509
rwrist -15.865
rhand -22.4331 24.092
rfingers 7.12502
rthumb 3.99059 -5.85038
lclavicle 1.64892e-013 -1.98785e-014
lhumerus -35.1653 -23.7164 86.1036
lradius 82.7353
lwrist 21.0164
lhand -15.3541 42.01
lfingers 7.12502
lthumb 10.8232 791.711
rfemur -27.5559 -4.90251 7.11817
rtibia 47.4682
rfoot -6.37674 -5.01046
rtoes -19.6528
lfemur -186.798 173.539 -202.794
ltibia 30.1423
lfoot -19.3145 24.775
ltoes -9.72345
1906
root 8.26764 15.8907 -0.683772 2.36675 -30.7351 -1.48963
lowerback 1.52957 -3.55991 -5.32419
upperback 1.22718 -4.83701 3.35987
thorax 1.14769 -2.51 6.47048
lowerneck -5.98905 -9.22604 -7.72223
upperneck 8.81089 -12.8437 10.5579
head 4.80819 -6.08598 3.62175
rclavicle 1.87355e-014 -2.78299e-015
rhumerus -34.0422 9.18599 -58.0666
rradius 78.6708
rwrist -14.8471
rhand -21.582 24.6168
rfingers 7.12502
rthumb 4.81239 -5.30858
lclavicle 1.87355e-014 -2.78299e-015
lhumerus -36.8244 -21.54 84.728
lradius 82.2429
lwrist 21.2019
lhand -17.7637 42.6263
lfingers 7.12502
lthumb 8.49836 792.435
rfemur -26.3298 -4.94529 7.87149
rtibia 45.421
rfoot -7.03162 -5.62269
rtoes -18.5409
lfemur -187.335 173.775 -202.515
ltibia 30.2734
lfoot -19.2632 25.2389
ltoes -10.3137
1907
root 8.17621 15.8838 -0.705956 2.75425 -30.998 -1.51377
lowerback 1.44292 -3.34622 -5.17788
upperback 1.28278 -4.54183 3.10317
thorax 1.17497 -2.35875 6.11525
lowerneck -6.45952 -9.21131 -7.77184
upperneck 8.87417 -12.8415 10.9131
head 4.93428 -6.05196 3.71484
rclavicle -6.48038e-014 -3.97569e-016
rhumerus -34.8021 10.9511 -60.5573
rradius 81.8965
rwrist -13.7547
rhand -20.8413 24.7933
rfingers 7.12502
rthumb 5.52756 -5.11463
lclavicle -6.48038e-014 -3.97569e-016
lhumerus -38.1489 -19.3399 83.2795
lradius 81.3461
lwrist 20.3199
lhand -18.8907 43.6109
lfingers 7.12502
lthumb 7.41065 793.461
rfemur -25.1225 -4.59755 8.62963
rtibia 43.4739
rfoot -7.79463 -7.2125
rtoes -17.9623
lfemur -187.639 174.039 -202.225
ltibia 30.3055
lfoot -19.1802 25.7973
ltoes -10.9493
1908
root 8.0769 15.8785 -0.717625 2.9756 -31.4688 -1.52005
lowerback 1.32323 -3.10468 -5.07186
upperback 1.43902 -4.20933 2.86869
thorax 1.32887 -2.19646 5.80211
lowerneck -6.8243 -9.1905 -7.72972
upperneck 8.83737 -12.8018 10.9974
head 4.98394 -6.01494 3.72174
rclavicle 9.54415e-014 3.97569e-016
rhumerus -35.8219 12.906 -63.0536
rradius 84.9598
rwrist -12.6771
rhand -20.1846 25.4566
rfingers 7.12502
rthumb 6.1616 -4.43377
lclavicle 9.54415e-014 3.97569e-016
lhumerus -39.3354 -16.9847 81.8591
lradius 80.0572
lwrist 18.3903
lhand -17.4561 44.5733
lfingers 7.12502
lthumb 8.7952 794.37
rfemur -23.9379 -3.97921 9.37601
rtibia 41.6038
rfoot -8.38931 -9.26013
rtoes -17.55
lfemur -187.633 174.064 -201.926
ltibia 30.2588
lfoot -19.3779 26.235
ltoes -10.7827
1909
root 7.97447 15.8764 -0.757805 3.30104 -31.1684 -1.34507
lowerback 1.41129 -3.10686 -5.31064
upperback 1.42676 -4.21503 2.69954
thorax 1.2724 -2.19783 5.76581
lowerneck -6.98813 -9.1701 -7.73339
upperneck 8.67149 -12.7344 10.9167
head 4.949 -5.98364 3.69912
rclavicle -3.23025e-016 -5.36719e-015
rhumerus -37.167 14.8637 -65.541
rradius 87.8594
rwrist -11.6136
rhand -19.5888 26.1805
rfingers 7.12502
rthumb 6.73675 -3.69238
lclavicle -3.23025e-016 -5.36719e-015
lhumerus -40.4902 -14.7338 80.5381
lradius 78.6045
lwrist 16.3394
lhand -16.1663 45.1986
lfingers 7.12502
lthumb 10.0397 794.939
rfemur -22.9719 -3.49278 9.99443
rtibia 39.8609
rfoot -9.24369 -11.7576
rtoes -15.4187
lfemur -188.007 173.959 -201.627
ltibia 30.1277
lfoot -18.9245 26.0859
ltoes -12.1385
1910
root 7.86819 15.8732 -0.795705 3.55894 -30.6681 -1.13679
lowerback 1.53535 -3.16696 -5.47259
upperback 1.4095 -4.29989 2.52042
thorax 1.19504 -2.23702 5.67688
lowerneck -7.14843 -9.14381 -7.79608
upperneck 8.57636 -12.6336 10.6364
head 4.92196 -5.94617 3.62694
rclavicle 6.26172e-014 -2.40529e-014
rhumerus -38.5823 16.7172 -67.9802
rradius 90.1544
rwrist -10.7043
rhand -19.0634 26.8039
rfingers 7.12502
rthumb 7.24397 -3.05212
lclavicle 6.26172e-014 -2.40529e-014
lhumerus -41.4858 -12.735 79.2721
lradius 77.1942
lwrist 14.7158
lhand -16.9255 45.0821
lfingers 7.12502
lthumb 9.30719 794.857
rfemur -21.9876 -2.64644 10.5214
rtibia 38.2446
rfoot -10.5539 -14.531
rtoes -12.3275
lfemur -188.337 173.948 -201.346
ltibia 29.9608
lfoot -18.2268 25.9579
ltoes -14.1461
1911
root 7.75895 15.8754 -0.841954 4.12844 -29.7669 -1.0574
lowerback 1.5213 -3.37148 -5.48127
upperback 1.29375 -4.57148 2.42179
thorax 1.11344 -2.36605 5.5778
lowerneck -7.21883 -9.10071 -7.87274
upperneck 8.53303 -12.4866 10.1007
head 4.87516 -5.90099 3.48684
rclavicle 1.07493e-013 -1.86858e-014
rhumerus -39.9293 18.336 -70.3861
rradius 91.7258
rwrist -9.94119
rhand -18.1982 27.4149
rfingers 7.12502
rthumb 8.07907 -2.41064
lclavicle 1.07493e-013 -1.86858e-014
lhumerus -42.3249 -11.0062 78.154
lradius 75.8833
lwrist 13.5317
lhand -17.4073 45.1029
lfingers 7.12502
lthumb 8.84233 794.898
rfemur -21.2908 -1.48734 11.1924
rtibia 36.8489
rfoot -12.7333 -17.7431
rtoes -9.20604
lfemur -189.042 174.037 -200.895
ltibia 29.8012
lfoot -17.1812 25.6753
ltoes -17.0992
1912
root 7.63489 15.8651 -0.814208 4.01545 -30.5245 -0.983986
lowerback 0.949542 -3.0336 -5.0988
upperback 1.65622 -4.08396 2.11726
thorax 1.6902 -2.1397 5.00548
lowerneck -7.14826 -9.07156 -7.92662
upperneck 8.43494 -12.3445 9.38551
head 4.77603 -5.87167 3.29559
rclavicle -1.52219e-013 1.18277e-014
rhumerus -41.278 19.4804 -72.7895
rradius 92.8189
rwrist -9.28941
rhand -16.4497 27.9871
rfingers 7.12502
rthumb 9.76633 -1.76648
lclavicle -1.52219e-013 1.18277e-014
lhumerus -43.0255 -9.53845 77.2197
lradius 74.635
lwrist 12.7455
lhand -17.4239 44.9897
lfingers 7.12502
lthumb 8.8263 794.785
rfemur -20.2339 0.0948903 11.825
rtibia 35.6567
rfoot -14.29 -19.9542
rtoes -9.56828
lfemur -188.437 173.974 -200.654
ltibia 29.7084
lfoot -17.8188 26.1958
ltoes -16.1351
1913
root 7.51177 15.8477 -0.830393 4.03445 -30.3196 -0.681985
lowerback 0.829582 -2.94097 -5.05514
upperback 1.73923 -3.94951 1.86429
thorax 1.80456 -2.07351 4.71138
lowerneck -7.02065 -9.03649 -7.88043
upperneck 8.39905 -12.1795 8.3478
head 4.6589 -5.84396 2.99561
rclavicle 5.88962e-014 -1.26725e-014
rhumerus -42.7688 20.1583 -75.1216
rradius 93.4248
rwrist -8.8622
rhand -14.3773 28.0059
rfingers 7.12502
rthumb 11.7653 -1.64364
lclavicle 5.88962e-014 -1.26725e-014
lhumerus -43.5397 -8.52024 76.5792
lradius 73.3243
lwrist 12.4424
lhand -17.6574 44.7941
lfingers 7.12502
lthumb 8.60098 794.599
rfemur -19.5969 1.17837 12.4438
rtibia 34.7403
rfoot -15.3049 -22.9125
rtoes -9.69173
lfemur -188.449 173.802 -200.411
ltibia 29.6641
lfoot -17.6297 25.9124
ltoes -17.2034
